<svg xmlns="http://www.w3.org/2000/svg" width="103" height="135">
    <path fill="#FFECBA" fill-rule="evenodd" d="M3.807 90.459l3.949 40.16L44.51 113.96S36.69 87.505 3.807 90.459z"/>
    <path fill="#393939" fill-rule="evenodd" d="M5.663 119.244s5.786.646 13.135 7.583c7.349 6.938-9.541 7.194-9.541 7.194S.529 130.137.43 129.309c-.1-.827 2.091-9.955 2.091-9.955"/>
    <path fill="#E88F8D" fill-rule="evenodd" d="M80.658 3.42c11.24 6.49 15.092 20.862 8.602 32.102l-5.5 9.526c-6.489 11.24-20.862 15.091-32.101 8.602-11.24-6.49-15.091-20.862-8.602-32.102l5.5-9.526C55.046.782 69.419-3.069 80.658 3.42z"/>
    <path fill="#D97475" fill-rule="evenodd" d="M81.592 2.804l20.784 12-13.5 23.383-20.784-12 13.5-23.383z"/>
    <path fill="#DAEAF2" fill-rule="evenodd" d="M48.307 12.455s11.172 4.141 21.346 10.015C79.831 28.346 89.01 35.955 89.01 35.955l-12.5 21.65-40.703-23.5 12.5-21.65z"/>
    <path fill="#BEDAE8" fill-rule="evenodd" d="M71.092 20.991l21.65 12.5-13 22.517-21.65-12.501 13-22.516z"/>
    <path fill="#F1C40F" fill-rule="evenodd" d="M37.85 30.326s11.172 4.141 21.346 10.015c10.178 5.876 19.357 13.485 19.357 13.485L44.51 113.96s-2.962-4.02-8.526-7.233c-6.562-3.788-14.713.744-14.713.744s.094-9.184-7.065-13.317C8.762 91.01 3.807 90.459 3.807 90.459L37.85 30.326z"/>
    <path fill="#F39C12" fill-rule="evenodd" d="M65.592 31.445l23.382 13.5-44 76.21-23.382-13.499 44-76.211z"/>
</svg>
