<svg xmlns="http://www.w3.org/2000/svg" width="118" height="37">
    <path fill="#FFF" fill-rule="evenodd" d="M117.385 30.001l-.361 4.385c-2.184 1.721-4.339 2.602-6.456 2.602-3.134 0-5.124-1.44-5.802-3.515-1.778 2.118-4.022 3.515-7.24 3.515-2.444 0-4.355-1.175-5.637-3.062-1.805 1.031-5.805 3.126-10.666 3.062-3.133-.042-5.124-1.44-5.801-3.515-1.779 2.075-3.938 3.515-7.241 3.515-2.403 0-4.292-1.133-5.574-2.965-5.076 2.35-8.195 2.965-10.262 2.965-3.219 0-5.125-1.313-5.844-3.218-2.329 2.159-4.785 3.218-7.58 3.218-3.185 0-5.466-1.667-6.301-4.221-4.798 2.544-9.181 4.031-14.858 4.221C7.724 37.323.983 31.397.983 21.042.983 8.928 9.309.573 21.682.709c6.021.066 10.189 2.051 12.042 3.308l-3.353 7.631c-1.501-.725-4.323-1.235-6.704-1.235-6.11 0-9.092 3.965-9.263 9.087-.176 5.293 3.095 8.798 7.94 9.263 4.789.459 8.209-.642 10.302-1.564l1.871-13.205h10.248l-1.822 12.831c-.169 1.144.551 2.075 1.61 2.075 1.016 0 1.99-.931 2.159-2.075l1.821-12.831h10.248l-1.99 14.271c-.243 1.737.369 2.835 4.105 1.321a15.177 15.177 0 0 1-.21-2.507c0-7.749 4.954-13.636 11.136-13.636 2.456 0 4.108 1.059 5.336 2.753l1.524-11.052H88.93l-3.261 23.29c-.206 1.614.52 2.821 4.503.736a15.453 15.453 0 0 1-.142-2.091c0-7.58 4.954-13.636 11.137-13.636 2.456 0 4.107 1.059 5.336 2.753l.296-2.202h10.248l-2.033 14.44c-.212 1.652.805 1.948 2.371 1.567zm-43.107-8.596c-1.99 0-3.557 2.032-3.557 4.362 0 1.777.932 3.175 2.499 3.175 1.948 0 3.557-2.032 3.557-4.361 0-1.779-.974-3.176-2.499-3.176zm29.345 0c-1.99 0-3.557 2.032-3.557 4.362 0 1.777.932 3.175 2.498 3.175 1.948 0 3.558-2.032 3.558-4.361 0-1.779-.974-3.176-2.499-3.176z"/>
</svg>
