<svg xmlns="http://www.w3.org/2000/svg" width="117" height="147">
    <path fill="#3A6DA5" fill-rule="evenodd" d="M48.105 120.999s1.607 1.216 1.689 3.574c.083 2.357-.559 17.575-.559 17.575s14.43-17 18.606-22.283c3.442-4.355 4.047-12.559-2.132-17.858-6.178-5.299-17.604 18.992-17.604 18.992z"/>
    <path fill="#487FBC" fill-rule="evenodd" d="M18.958 104.171s-1.857-.783-3.94.324c-2.082 1.107-14.941 9.271-14.941 9.271s7.508-20.996 9.995-27.254c2.05-5.158 8.853-9.784 16.531-7.083 7.678 2.701-7.645 24.742-7.645 24.742z"/>
    <path fill="#D97475" fill-rule="evenodd" d="M26.079 109.149l13.857 8a3.5 3.5 0 0 1-3.5 6.062l-13.857-8a3.5 3.5 0 1 1 3.5-6.062z"/>
    <path fill="#F1C40F" fill-rule="evenodd" d="M29.806 121.693a8 8 0 0 1 2.929 10.928c-2.21 3.826-17.076 13.518-17.076 13.518s1.01-17.692 3.219-21.518a8 8 0 0 1 10.928-2.928z"/>
    <path fill="#DAEAF2" fill-rule="evenodd" d="M91.498 17.566c-.6-1.811-1.01-3.432-.913-3.6.097-.167.131-.298.076-.289-.055.008-.492-.041-.549-.186-.056-.145-.185-.121-.285.053-.101.174-1.706.662-3.567 1.084 0 0-35.111 7.963-50.811 36.715-17.466 31.987-16.15 53.779-16.15 53.779-.038 1.909 1.283 4.25 2.936 5.205l5.781 3.337 3.38 1.952 3.381 1.951 6.139 3.545c1.653.954 4.36.959 6.016.011 0 0 18.559-10.364 37.528-41.483 17.083-28.027 7.038-62.074 7.038-62.074z"/>
    <path fill="#BEDAE8" fill-rule="evenodd" d="M91.44 12.939l25.115 14.501-61 105.654-25.115-14.499 61-105.656z"/>
    <path fill="#D84848" fill-rule="evenodd" d="M92.952 10.322l15.599 8.981-13 22.517s-6.805-6.053-14.616-10.685l12.017-20.813z"/>
    <path fill="#F57B71" fill-rule="evenodd" d="M80.935 31.135c-.232-.138-.462-.279-.696-.413-7.92-4.573-16.731-7.402-16.731-7.402L76.486.842l16.466 9.48-12.017 20.813z"/>
    <path fill="#FFF" fill-rule="evenodd" d="M70.99 47.361c7.875 4.547 10.573 14.616 6.026 22.492-4.546 7.875-14.616 10.573-22.491 6.026-7.875-4.546-10.573-14.617-6.027-22.492 4.547-7.875 14.617-10.573 22.492-6.026z"/>
    <path fill="#5AD2EB" fill-rule="evenodd" d="M69.007 50.795c5.979 3.452 8.027 11.097 4.576 17.075-3.452 5.979-11.097 8.027-17.076 4.575-5.978-3.451-8.027-11.096-4.575-17.075 3.452-5.978 11.097-8.027 17.075-4.575z"/>
</svg>
